<?xml version="1.0" encoding="UTF-8" standalone="no"?>
<!DOCTYPE svg PUBLIC "-//W3C//DTD SVG 1.1//EN"
 "http://www.w3.org/Graphics/SVG/1.1/DTD/svg11.dtd">
<!-- Generated by graphviz version 2.38.0 (20140413.2041)
 -->
<!-- Title: %3 Pages: 1 -->
<svg width="105pt" height="235pt"
 viewBox="0.00 0.00 105.00 234.99" xmlns="http://www.w3.org/2000/svg" xmlns:xlink="http://www.w3.org/1999/xlink">
<g id="graph0" class="graph" transform="scale(1 1) rotate(0) translate(4 230.99)">
<title>%3</title>
<polygon fill="white" stroke="none" points="-4,4 -4,-230.99 100.997,-230.99 100.997,4 -4,4"/>
<!-- q1 -->
<g id="node1" class="node"><title>q1</title>
<ellipse fill="none" stroke="black" cx="19.4983" cy="-117.495" rx="19.4965" ry="19.4965"/>
<text text-anchor="middle" x="19.4983" y="-113.795" font-family="Times,serif" font-size="14.00">q1</text>
</g>
<!-- q1&#45;&gt;q1 -->
<g id="edge2" class="edge"><title>q1&#45;&gt;q1</title>
<path fill="none" stroke="black" d="M37.6327,-125.35C47.7135,-126.816 56.9965,-124.198 56.9965,-117.495 56.9965,-113.201 53.1868,-110.583 47.7982,-109.641"/>
<polygon fill="black" stroke="black" points="47.6334,-106.141 37.6327,-109.64 47.6321,-113.141 47.6334,-106.141"/>
<text text-anchor="middle" x="60.4965" y="-113.795" font-family="Times,serif" font-size="14.00">c</text>
</g>
<!-- q2 -->
<g id="node3" class="node"><title>q2</title>
<ellipse fill="none" stroke="black" cx="73.4983" cy="-23.4983" rx="19.4968" ry="19.4968"/>
<ellipse fill="none" stroke="black" cx="73.4983" cy="-23.4983" rx="23.4965" ry="23.4965"/>
<text text-anchor="middle" x="73.4983" y="-19.7983" font-family="Times,serif" font-size="14.00">q2</text>
</g>
<!-- q1&#45;&gt;q2 -->
<g id="edge3" class="edge"><title>q1&#45;&gt;q2</title>
<path fill="none" stroke="black" d="M29.1524,-100.048C36.8109,-87.0003 47.6984,-68.4519 56.7687,-52.9994"/>
<polygon fill="black" stroke="black" points="59.8173,-54.7198 61.861,-44.3239 53.7804,-51.1762 59.8173,-54.7198"/>
<text text-anchor="middle" x="52.9983" y="-68.7965" font-family="Times,serif" font-size="14.00">x</text>
</g>
<!-- q0 -->
<g id="node2" class="node"><title>q0</title>
<ellipse fill="none" stroke="black" cx="73.4983" cy="-207.491" rx="19.4965" ry="19.4965"/>
<text text-anchor="middle" x="73.4983" y="-203.791" font-family="Times,serif" font-size="14.00">q0</text>
</g>
<!-- q0&#45;&gt;q1 -->
<g id="edge1" class="edge"><title>q0&#45;&gt;q1</title>
<path fill="none" stroke="black" d="M63.5938,-190.351C55.5251,-177.203 43.9962,-158.416 34.7503,-143.349"/>
<polygon fill="black" stroke="black" points="37.5534,-141.225 29.3399,-134.532 31.5872,-144.886 37.5534,-141.225"/>
<text text-anchor="middle" x="52.9983" y="-158.793" font-family="Times,serif" font-size="14.00">c</text>
</g>
<!-- q0&#45;&gt;q2 -->
<g id="edge4" class="edge"><title>q0&#45;&gt;q2</title>
<path fill="none" stroke="black" d="M73.4983,-187.7C73.4983,-156.902 73.4983,-95.3063 73.4983,-57.2205"/>
<polygon fill="black" stroke="black" points="76.9984,-57.1469 73.4983,-47.1469 69.9984,-57.1469 76.9984,-57.1469"/>
<text text-anchor="middle" x="76.9983" y="-113.795" font-family="Times,serif" font-size="14.00">x</text>
</g>
</g>
</svg>
