<?xml version="1.0" encoding="UTF-8" standalone="no"?>
<!DOCTYPE svg PUBLIC "-//W3C//DTD SVG 1.1//EN"
 "http://www.w3.org/Graphics/SVG/1.1/DTD/svg11.dtd">
<!-- Generated by graphviz version 2.38.0 (20140413.2041)
 -->
<!-- Title: %3 Pages: 1 -->
<svg width="193pt" height="333pt"
 viewBox="0.00 0.00 193.50 332.99" xmlns="http://www.w3.org/2000/svg" xmlns:xlink="http://www.w3.org/1999/xlink">
<g id="graph0" class="graph" transform="scale(1 1) rotate(0) translate(4 328.986)">
<title>%3</title>
<polygon fill="white" stroke="none" points="-4,4 -4,-328.986 189.498,-328.986 189.498,4 -4,4"/>
<!-- q1 -->
<g id="node1" class="node"><title>q1</title>
<ellipse fill="none" stroke="black" cx="43.4983" cy="-211.491" rx="19.4965" ry="19.4965"/>
<text text-anchor="middle" x="43.4983" y="-207.791" font-family="Times,serif" font-size="14.00">q1</text>
</g>
<!-- q2 -->
<g id="node3" class="node"><title>q2</title>
<ellipse fill="none" stroke="black" cx="23.4983" cy="-113.495" rx="19.4968" ry="19.4968"/>
<ellipse fill="none" stroke="black" cx="23.4983" cy="-113.495" rx="23.4965" ry="23.4965"/>
<text text-anchor="middle" x="23.4983" y="-109.795" font-family="Times,serif" font-size="14.00">q2</text>
</g>
<!-- q1&#45;&gt;q2 -->
<g id="edge2" class="edge"><title>q1&#45;&gt;q2</title>
<path fill="none" stroke="black" d="M39.6421,-191.982C36.9675,-179.145 33.3355,-161.712 30.1938,-146.632"/>
<polygon fill="black" stroke="black" points="33.581,-145.73 28.1149,-136.654 26.7282,-147.158 33.581,-145.73"/>
<text text-anchor="middle" x="38.9983" y="-158.793" font-family="Times,serif" font-size="14.00">a</text>
</g>
<!-- q0 -->
<g id="node2" class="node"><title>q0</title>
<ellipse fill="none" stroke="black" cx="102.498" cy="-305.488" rx="19.4965" ry="19.4965"/>
<text text-anchor="middle" x="102.498" y="-301.788" font-family="Times,serif" font-size="14.00">q0</text>
</g>
<!-- q0&#45;&gt;q1 -->
<g id="edge1" class="edge"><title>q0&#45;&gt;q1</title>
<path fill="none" stroke="black" d="M92.2213,-288.463C83.0842,-274.216 69.5895,-253.174 59.1174,-236.846"/>
<polygon fill="black" stroke="black" points="62.0022,-234.86 53.6575,-228.332 56.1099,-238.639 62.0022,-234.86"/>
<text text-anchor="middle" x="81.9983" y="-256.79" font-family="Times,serif" font-size="14.00">a</text>
</g>
<!-- q3 -->
<g id="node4" class="node"><title>q3</title>
<ellipse fill="none" stroke="black" cx="144.498" cy="-211.491" rx="19.4968" ry="19.4968"/>
<ellipse fill="none" stroke="black" cx="144.498" cy="-211.491" rx="23.4965" ry="23.4965"/>
<text text-anchor="middle" x="144.498" y="-207.791" font-family="Times,serif" font-size="14.00">q3</text>
</g>
<!-- q0&#45;&gt;q3 -->
<g id="edge3" class="edge"><title>q0&#45;&gt;q3</title>
<path fill="none" stroke="black" d="M110.398,-287.184C116.129,-274.631 124.027,-257.332 130.779,-242.542"/>
<polygon fill="black" stroke="black" points="134.047,-243.811 135.016,-233.261 127.679,-240.904 134.047,-243.811"/>
<text text-anchor="middle" x="129.998" y="-256.79" font-family="Times,serif" font-size="14.00">b</text>
</g>
<!-- q4 -->
<g id="node5" class="node"><title>q4</title>
<ellipse fill="none" stroke="black" cx="84.4983" cy="-113.495" rx="19.4965" ry="19.4965"/>
<text text-anchor="middle" x="84.4983" y="-109.795" font-family="Times,serif" font-size="14.00">q4</text>
</g>
<!-- q3&#45;&gt;q4 -->
<g id="edge4" class="edge"><title>q3&#45;&gt;q4</title>
<path fill="none" stroke="black" d="M132.356,-191.065C123.025,-176.135 110.069,-155.406 99.9901,-139.281"/>
<polygon fill="black" stroke="black" points="102.706,-137.022 94.4376,-130.397 96.7698,-140.732 102.706,-137.022"/>
<text text-anchor="middle" x="121.998" y="-158.793" font-family="Times,serif" font-size="14.00">c</text>
</g>
<!-- q5 -->
<g id="node6" class="node"><title>q5</title>
<ellipse fill="none" stroke="black" cx="164.498" cy="-19.4983" rx="19.4965" ry="19.4965"/>
<text text-anchor="middle" x="164.498" y="-15.7983" font-family="Times,serif" font-size="14.00">q5</text>
</g>
<!-- q3&#45;&gt;q5 -->
<g id="edge7" class="edge"><title>q3&#45;&gt;q5</title>
<path fill="none" stroke="black" d="M146.871,-187.951C150.506,-153.417 157.452,-87.4337 161.454,-49.4197"/>
<polygon fill="black" stroke="black" points="164.981,-49.3486 162.547,-39.0371 158.019,-48.6157 164.981,-49.3486"/>
<text text-anchor="middle" x="160.998" y="-109.795" font-family="Times,serif" font-size="14.00">d</text>
</g>
<!-- q3&#45;&gt;q5 -->
<g id="edge8" class="edge"><title>q3&#45;&gt;q5</title>
<path fill="none" stroke="black" d="M155.86,-190.85C159.137,-184.394 162.393,-177.057 164.498,-169.993 178.899,-121.677 181.22,-106.963 174.498,-56.9965 174.104,-54.0664 173.54,-51.0386 172.877,-48.0381"/>
<polygon fill="black" stroke="black" points="176.211,-46.9483 170.349,-38.1229 169.428,-48.6777 176.211,-46.9483"/>
<text text-anchor="middle" x="181.998" y="-109.795" font-family="Times,serif" font-size="14.00">a</text>
</g>
<!-- q4&#45;&gt;q4 -->
<g id="edge5" class="edge"><title>q4&#45;&gt;q4</title>
<path fill="none" stroke="black" d="M102.245,-122C112.474,-123.736 121.997,-120.901 121.997,-113.495 121.997,-108.75 118.088,-105.882 112.59,-104.889"/>
<polygon fill="black" stroke="black" points="112.21,-101.392 102.245,-104.989 112.278,-108.392 112.21,-101.392"/>
<text text-anchor="middle" x="125.497" y="-109.795" font-family="Times,serif" font-size="14.00">c</text>
</g>
<!-- q4&#45;&gt;q5 -->
<g id="edge6" class="edge"><title>q4&#45;&gt;q5</title>
<path fill="none" stroke="black" d="M96.9983,-98.1204C109.914,-83.2677 130.244,-59.8892 145.22,-42.6673"/>
<polygon fill="black" stroke="black" points="148.165,-44.6144 152.086,-34.7718 142.883,-40.0211 148.165,-44.6144"/>
<text text-anchor="middle" x="135.998" y="-60.7965" font-family="Times,serif" font-size="14.00">d</text>
</g>
</g>
</svg>
